<svg width="30" height="31" viewBox="0 0 30 31" fill="none" xmlns="http://www.w3.org/2000/svg">
    <path fill-rule="evenodd" clip-rule="evenodd" d="M15.5541 11.0857C10.1167 11.0306 7.27723 13.2237 6.50285 13.9279C5.56786 14.7798 5.36881 16.4197 5.71007 17.5652C7.07645 17.688 8.47117 17.4553 9.99205 17.1942C10.0035 16.1357 9.68984 14.4969 10.9162 13.9924C11.6121 13.7039 13.4013 13.0637 15.5345 13.086C17.6677 13.1083 19.4429 13.7839 20.1336 14.0844C21.3508 14.615 21.0026 16.2514 20.9919 17.3106C22.5219 17.6174 23.9226 17.9095 25.2582 17.7837C25.632 16.6334 25.4774 14.9927 24.5473 14.1107C23.7873 13.3909 20.9929 11.1408 15.5541 11.0857ZM5.15658 12.4484C6.22217 11.4784 9.5317 9.02488 15.575 9.08538C21.6184 9.14729 24.8761 11.6673 25.9232 12.6587C27.5174 14.1712 27.809 16.8719 27.0042 18.8268C26.9078 19.0627 26.7517 19.2695 26.5513 19.4269C26.3509 19.5843 26.1129 19.6869 25.8609 19.7246C23.8914 20.0122 21.8556 19.5192 20.2006 19.192C19.8565 19.1241 19.5469 18.9379 19.3254 18.6658C19.104 18.3936 18.9847 18.0526 18.9881 17.7018L19.0069 15.7835C18.2954 15.5076 16.9991 15.1006 15.5143 15.0856C14.0294 15.0705 12.7251 15.4512 12.0076 15.7134L11.9888 17.6302C11.9854 17.9823 11.8583 18.3219 11.6298 18.5896C11.4012 18.8574 11.0858 19.0362 10.7386 19.0948C9.03572 19.3859 7.07938 19.7727 5.12111 19.5117C4.86016 19.4763 4.6135 19.3715 4.40691 19.2082C4.20033 19.0449 4.0414 18.8291 3.94676 18.5833C3.17765 16.6026 3.52644 13.9324 5.15658 12.4484Z" fill="white"/>
</svg>
