<svg width="24" height="24" viewBox="0 0 24 24" fill="none" xmlns="http://www.w3.org/2000/svg">
    <path fill-rule="evenodd" clip-rule="evenodd" d="M10.2361 5C9.8573 5 9.51103 5.214 9.34164 5.55279L8.94721 6.34164C8.43904 7.35799 7.40025 8 6.26393 8H5C4.44772 8 4 8.44772 4 9V18C4 18.5523 4.44772 19 5 19H19C19.5523 19 20 18.5523 20 18V9C20 8.44772 19.5523 8 19 8H17.7361C16.5998 8 15.561 7.35799 15.0528 6.34164L14.6584 5.55279C14.489 5.214 14.1427 5 13.7639 5H10.2361ZM7.55279 4.65836C8.06096 3.64201 9.09975 3 10.2361 3H13.7639C14.9002 3 15.939 3.64201 16.4472 4.65836L16.8416 5.44721C17.011 5.786 17.3573 6 17.7361 6H19C20.6569 6 22 7.34315 22 9V18C22 19.6569 20.6569 21 19 21H5C3.34315 21 2 19.6569 2 18V9C2 7.34315 3.34315 6 5 6H6.26393C6.6427 6 6.98897 5.786 7.15836 5.44721L7.55279 4.65836Z" fill="#989898"/>
    <path fill-rule="evenodd" clip-rule="evenodd" d="M12 10C10.3431 10 9 11.3431 9 13C9 14.6569 10.3431 16 12 16C13.6569 16 15 14.6569 15 13C15 11.3431 13.6569 10 12 10ZM7 13C7 10.2386 9.23858 8 12 8C14.7614 8 17 10.2386 17 13C17 15.7614 14.7614 18 12 18C9.23858 18 7 15.7614 7 13Z" fill="#989898"/>
</svg>
