<svg width="24" height="25" viewBox="0 0 24 25" fill="none" xmlns="http://www.w3.org/2000/svg">
    <path d="M5 18.7339V22.4999L6.515 21.5909L11.277 18.7339H16C17.103 18.7339 18 17.8369 18 16.7339V8.73389C18 7.63089 17.103 6.73389 16 6.73389H4C2.897 6.73389 2 7.63089 2 8.73389V16.7339C2 17.8369 2.897 18.7339 4 18.7339H5ZM3.5 8.23389H16.5V17.2339H11L6.5 19.9999L6.515 17.2339H3.5V8.23389Z" fill="#7B7A7A"/>
    <path d="M19 3.5H7C5.897 3.5 5 3.897 5 5H11H18C19.103 5 19.5 5.397 19.5 6.5V11.5V15.5C20.603 15.5 21 14.603 21 13.5V5.5C21 4.397 20.103 3.5 19 3.5Z" fill="#7B7A7A"/>
</svg>
