<svg width="24" height="24" viewBox="0 0 24 24" fill="none" xmlns="http://www.w3.org/2000/svg">
    <path d="M6.75 3C5.75544 3 4.80161 3.39509 4.09835 4.09835C3.39509 4.80161 3 5.75544 3 6.75V14.25C3 14.7425 3.097 15.2301 3.28545 15.6851C3.47391 16.14 3.75013 16.5534 4.09835 16.9017C4.80161 17.6049 5.75544 18 6.75 18H14.25C14.7425 18 15.2301 17.903 15.6851 17.7145C16.14 17.5261 16.5534 17.2499 16.9017 16.9017C17.2499 16.5534 17.5261 16.14 17.7145 15.6851C17.903 15.2301 18 14.7425 18 14.25V6.75C18 6.25754 17.903 5.76991 17.7145 5.31494C17.5261 4.85997 17.2499 4.44657 16.9017 4.09835C16.5534 3.75013 16.14 3.47391 15.6851 3.28545C15.2301 3.097 14.7425 3 14.25 3H6.75ZM14.781 8.781L10.281 13.281C10.2113 13.3508 10.1286 13.4063 10.0375 13.4441C9.94633 13.4819 9.84865 13.5013 9.75 13.5013C9.65135 13.5013 9.55367 13.4819 9.46255 13.4441C9.37143 13.4063 9.28867 13.3508 9.219 13.281L6.969 11.031C6.89927 10.9613 6.84395 10.8785 6.80621 10.7874C6.76848 10.6963 6.74905 10.5986 6.74905 10.5C6.74905 10.4014 6.76848 10.3037 6.80621 10.2126C6.84395 10.1215 6.89927 10.0387 6.969 9.969C7.03873 9.89927 7.12152 9.84395 7.21262 9.80621C7.30373 9.76848 7.40138 9.74905 7.5 9.74905C7.59862 9.74905 7.69627 9.76848 7.78738 9.80621C7.87848 9.84395 7.96127 9.89927 8.031 9.969L9.75 11.6895L13.719 7.719C13.8598 7.57817 14.0508 7.49905 14.25 7.49905C14.4492 7.49905 14.6402 7.57817 14.781 7.719C14.9218 7.85983 15.0009 8.05084 15.0009 8.25C15.0009 8.44916 14.9218 8.64017 14.781 8.781ZM7.5 19.5C8.184 20.4105 9.273 21 10.5 21H14.25C16.0402 21 17.7571 20.2888 19.023 19.023C20.2888 17.7571 21 16.0402 21 14.25V9C21 7.773 20.4105 6.684 19.5 6V14.25C19.5 15.6424 18.9469 16.9777 17.9623 17.9623C16.9777 18.9469 15.6424 19.5 14.25 19.5H7.5Z" fill="#2EAED2"/>
</svg>
