<svg width="66" height="65" viewBox="0 0 66 65" fill="none" xmlns="http://www.w3.org/2000/svg">
    <path d="M28.2807 10.6611C29.1295 11.1305 29.7045 11.6579 30.3162 12.4108C30.465 12.5434 30.6165 12.673 30.7702 12.8C31.1937 13.1504 31.5207 13.5448 31.8728 13.9674C32.0218 14.0999 32.1733 14.2295 32.3269 14.3566C32.7503 14.707 33.0773 15.1015 33.4295 15.5241C33.5785 15.6565 33.7299 15.7862 33.8835 15.9133C34.3069 16.2637 34.634 16.6581 34.9861 17.0807C35.1351 17.2132 35.2866 17.3428 35.4401 17.4699C35.8636 17.8203 36.1906 18.2148 36.5428 18.6374C36.6917 18.7698 36.8432 18.8995 36.9968 19.0265C37.4202 19.377 37.7472 19.7714 38.0994 20.194C38.2484 20.3265 38.3999 20.4561 38.5534 20.5832C38.9769 20.9336 39.3039 21.3281 39.6561 21.7507C39.805 21.8831 39.9565 22.0127 40.1101 22.1398C40.5335 22.4903 40.8605 22.8847 41.2127 23.3073C41.3617 23.4397 41.5132 23.5694 41.6667 23.6965C42.0902 24.0469 42.4172 24.4414 42.7693 24.864C42.9935 25.0679 43.2241 25.2619 43.457 25.4558C43.8705 25.8057 44.239 26.1778 44.5692 26.6071C44.8008 26.8863 45.0142 27.0912 45.2908 27.3205C45.7167 27.6741 46.0468 28.0705 46.4015 28.4961C46.6267 28.6963 46.858 28.8874 47.0901 29.0794C47.4178 29.3707 47.6786 29.7158 47.9582 30.0528C48.0919 30.1718 48.2282 30.2879 48.3671 30.4009C48.489 30.5001 48.6109 30.5992 48.7365 30.7014C48.668 30.4791 48.668 30.4791 48.5981 30.2524C48.1662 28.8379 47.7658 27.4175 47.3903 25.9869C47.2157 25.3269 47.0353 24.6727 46.8196 24.0248C46.2359 22.2693 45.854 20.4477 46.6275 18.6789C47.3714 17.3068 48.4643 16.3761 49.904 15.7835C51.2147 15.4095 52.7692 15.5119 53.9846 16.1104C54.4804 16.399 54.9262 16.6955 55.3522 17.0807C55.4291 17.1476 55.5061 17.2145 55.5853 17.2834C56.9704 18.6562 57.4102 20.9965 57.9934 22.8065C58.2295 23.5332 58.4708 24.2484 58.7726 24.9506C59.1079 25.7328 59.3855 26.5306 59.6634 27.3345C59.9378 28.1277 60.22 28.9177 60.5091 29.7057C60.5497 29.8164 60.5903 29.9271 60.6322 30.0412C60.7557 30.3775 60.8794 30.7138 61.0032 31.05C61.1684 31.4991 61.3334 31.9482 61.4982 32.3974C61.5579 32.56 61.5579 32.56 61.6188 32.7259C61.9139 33.5324 62.2023 34.341 62.4852 35.1519C62.6898 35.737 62.906 36.3165 63.1273 36.8955C63.8708 38.8681 64.5457 40.797 64.8218 42.8951C64.8339 42.9802 64.8459 43.0653 64.8583 43.153C65.1421 45.3511 65.1465 47.7553 64.5624 49.9C64.5174 50.0752 64.5174 50.0752 64.4715 50.2539C63.7639 52.9907 62.6924 55.3247 60.9302 57.5535C60.8421 57.6657 60.7539 57.7779 60.6632 57.8935C57.9412 61.2948 54.3528 63.449 50.1634 64.5584C50.0768 64.5817 49.9902 64.6049 49.9009 64.6289C48.4708 64.9904 47.0083 64.9873 45.5421 64.9962C45.3984 64.9978 45.3984 64.9978 45.2518 64.9994C43.4714 65.014 41.7837 64.7762 40.0776 64.2503C39.9858 64.2224 39.894 64.1945 39.7995 64.1658C37.7831 63.5391 35.8606 62.5959 34.1673 61.3316C34.0899 61.2739 34.0125 61.2162 33.9328 61.1567C32.3702 59.9502 30.9924 58.5076 29.6012 57.1127C29.404 56.9154 29.2067 56.7182 29.0094 56.521C28.4783 55.9898 27.9475 55.4583 27.4168 54.9267C26.8597 54.3688 26.3022 53.8112 25.7448 53.2537C24.6905 52.199 23.6366 51.144 22.5828 50.0889C21.3849 48.8895 20.1866 47.6906 18.9883 46.4916C16.9406 44.4428 14.8932 42.3937 12.8461 40.3443C12.7167 40.2148 12.7167 40.2148 12.5847 40.0826C12.4263 39.924 12.2679 39.7654 12.1095 39.6068C11.9718 39.469 11.8341 39.3312 11.6965 39.1934C11.5128 39.0095 11.3291 38.8255 11.1455 38.6415C10.8991 38.3958 10.6496 38.1548 10.3965 37.9161C9.46148 37.0196 8.63843 36.2 8.134 34.9821C8.08635 34.8827 8.03869 34.7832 7.98959 34.6806C7.63644 33.615 7.75519 32.2421 8.24041 31.2415C8.29091 31.1489 8.34141 31.0563 8.39344 30.9608C8.45715 30.8259 8.45715 30.8259 8.52215 30.6882C9.01798 29.7508 10.0117 29.0211 10.9879 28.6259C11.1591 28.6259 11.3303 28.6259 11.5067 28.6259C11.3679 28.2095 11.3013 28.146 10.9716 27.8881C10.5382 27.5301 10.1847 27.1432 9.82341 26.714C9.56861 26.4292 9.29866 26.1673 9.02133 25.9046C8.08137 25.0082 7.4094 24.065 7.32933 22.7423C7.30906 21.0847 7.60327 19.8808 8.76335 18.6399C9.46232 17.9869 10.27 17.4434 11.2554 17.4375C11.3811 17.4482 11.5069 17.4589 11.6365 17.4699C11.6056 17.3086 11.6056 17.3086 11.5741 17.1441C11.3846 15.8716 11.3261 14.5695 12.0256 13.4486C12.0821 13.3489 12.1387 13.2492 12.1969 13.1466C12.6348 12.4238 13.123 11.9431 13.8417 11.5028C13.9623 11.4222 13.9623 11.4222 14.0854 11.3401C15.1639 10.7344 16.5747 10.8585 17.7576 11.0513C18.8286 11.3673 19.563 12.1573 20.3277 12.9297C20.4237 13.0255 20.5197 13.1213 20.6186 13.22C20.7692 13.3709 20.9187 13.5229 21.0665 13.6766C21.2359 13.8536 21.2359 13.8536 21.4952 13.9674C21.5006 13.8658 21.5059 13.7641 21.5114 13.6594C21.7853 12.5249 22.4985 11.6483 23.441 10.9839C24.9873 10.0567 26.6268 9.87928 28.2807 10.6611ZM23.9599 13.4486C23.4972 14.0655 23.5112 14.7138 23.481 15.4577C23.7288 16.7163 24.8449 17.6253 25.7255 18.4849C25.864 18.6216 26.0023 18.7583 26.1406 18.8951C26.4365 19.1876 26.733 19.4795 27.0299 19.771C27.4993 20.232 27.9669 20.695 28.4342 21.1582C29.7624 22.4747 31.0925 23.7892 32.4258 25.1005C33.1636 25.8263 33.8996 26.5538 34.6336 27.2835C35.0977 27.7446 35.5639 28.2033 36.0319 28.6604C36.3219 28.9448 36.6098 29.2313 36.8971 29.5185C37.0308 29.6513 37.1653 29.7831 37.3008 29.914C37.4855 30.0927 37.6668 30.2749 37.8478 30.4573C37.9502 30.5583 38.0527 30.6592 38.1582 30.7633C38.3589 31.0905 38.3589 31.0905 38.3396 31.5644C38.2157 32.0515 38.1255 32.2369 37.7102 32.5175C37.3535 32.6066 37.3535 32.6066 36.9319 32.5175C35.8932 31.7846 35.0146 30.7433 34.1216 29.8433C33.9438 29.6647 33.766 29.486 33.5882 29.3074C33.2069 28.9245 32.8258 28.5413 32.4449 28.158C31.8425 27.552 31.2393 26.9466 30.636 26.3414C30.4291 26.1339 30.2222 25.9263 30.0153 25.7187C29.86 25.5629 29.86 25.5629 29.7015 25.4039C28.2982 23.9959 26.8955 22.5873 25.4942 21.1774C24.5471 20.2246 23.5992 19.2727 22.6502 18.3219C22.1485 17.8192 21.6473 17.3159 21.1472 16.8116C20.6775 16.3378 20.2066 15.8653 19.7347 15.3936C19.5618 15.2204 19.3893 15.0467 19.2173 14.8725C18.9825 14.6348 18.7462 14.3988 18.5094 14.1631C18.4417 14.0938 18.374 14.0245 18.3043 13.9531C17.6729 13.3311 17.0637 13.152 16.1929 13.1324C15.2872 13.1515 14.7743 13.4088 14.1533 14.0526C13.6625 14.6979 13.6356 15.3368 13.6258 16.1281C13.8131 17.0711 14.4768 17.7732 15.1477 18.4275C15.263 18.5422 15.263 18.5422 15.3806 18.6594C15.6358 18.9131 15.8924 19.1654 16.149 19.4178C16.3332 19.6004 16.5173 19.7831 16.7013 19.9659C17.0966 20.3581 17.4923 20.7498 17.8886 21.141C18.5149 21.7596 19.1395 22.38 19.7637 23.0007C21.5387 24.765 23.3157 26.5272 25.0951 28.287C26.0788 29.2599 27.0609 30.2344 28.0412 31.2107C28.6616 31.8282 29.2839 32.4438 29.9077 33.0578C30.2948 33.4398 30.68 33.8237 31.0646 34.2081C31.2435 34.3861 31.4232 34.5633 31.6037 34.7397C31.8498 34.9804 32.0929 35.2238 32.3355 35.468C32.4078 35.5373 32.48 35.6066 32.5544 35.6781C32.9135 36.0458 33.0366 36.2473 33.0965 36.7643C33.0403 37.1874 33.0403 37.1874 32.8457 37.5036C32.3993 37.7826 31.9909 37.797 31.4837 37.7063C31.1664 37.4883 30.9506 37.3073 30.6912 37.0342C30.5821 36.9258 30.5821 36.9258 30.4708 36.8151C30.2283 36.5728 29.9897 36.327 29.7509 36.0811C29.5776 35.9064 29.404 35.7319 29.2303 35.5577C28.8568 35.1823 28.485 34.8052 28.1144 34.4269C27.5282 33.8286 26.9383 33.234 26.3478 32.6399C25.3077 31.5924 24.2708 30.5419 23.2346 29.4907C21.6752 27.9087 20.1136 26.3289 18.5486 24.7524C17.9623 24.1615 17.3778 23.569 16.7946 22.9751C16.4312 22.6056 16.0664 22.2374 15.7013 21.8695C15.5326 21.699 15.3644 21.5278 15.1968 21.3561C14.9675 21.1212 14.7363 20.8884 14.5045 20.6561C14.4391 20.588 14.3736 20.52 14.3062 20.45C13.7033 19.8533 12.9531 19.4903 12.0905 19.4887C11.3749 19.517 10.8004 19.7649 10.2693 20.2447C9.63601 20.9484 9.53486 21.6535 9.48847 22.5604C9.7201 23.704 10.7313 24.529 11.527 25.3114C11.6555 25.4391 11.7839 25.567 11.9122 25.6949C12.248 26.0293 12.585 26.3624 12.9223 26.6954C13.2644 27.0335 13.6055 27.3728 13.9466 27.712C14.5474 28.3091 15.1492 28.9053 15.7517 29.5007C16.0673 29.8135 16.3815 30.1276 16.6955 30.4419C17.0528 30.7986 17.4101 31.1551 17.7674 31.5117C18.8466 32.5888 19.9256 33.6663 21.0043 34.7439C21.6568 35.3958 22.3095 36.0476 22.9624 36.699C23.5943 37.3294 24.2258 37.9602 24.8571 38.5912C25.098 38.8319 25.339 39.0724 25.5802 39.3129C25.9162 39.6479 26.2518 39.9834 26.5874 40.319C26.6878 40.419 26.7882 40.5189 26.8916 40.6219C26.9825 40.713 27.0735 40.8041 27.1672 40.8979C27.2465 40.9772 27.3259 41.0565 27.4077 41.1382C27.7635 41.5248 27.7452 41.8664 27.7643 42.3798C27.7218 42.6357 27.7218 42.6357 27.5672 42.8616C27.251 43.0816 27.041 43.064 26.6597 43.0491C26.5428 43.0456 26.4259 43.0421 26.3055 43.0385C26.2164 43.034 26.3973 43.0431 26.3055 43.0385C26.2627 42.9101 25.9498 42.768 25.9057 42.6357C25.7203 42.4804 25.5343 42.3257 25.3448 42.1755C25.1158 41.977 24.9308 41.7668 24.7382 41.533C24.4913 41.2348 24.2703 41.0137 23.968 40.7628C23.6642 40.5086 23.4406 40.2902 23.1897 39.9926C22.4892 39.1694 21.7041 38.424 20.9364 37.6643C20.5666 37.2981 20.1981 36.9306 19.8337 36.5591C19.4879 36.2075 19.1456 35.8782 18.763 35.5659C18.3931 35.2511 18.1062 34.9246 17.7982 34.5524C17.585 34.3017 17.585 34.3017 17.2144 34.0092C16.8378 33.6954 16.5526 33.3717 16.242 32.9963C15.9507 32.6686 15.6056 32.4079 15.2686 32.1283C15.167 31.9999 15.0653 31.8715 14.9605 31.7391C14.4178 31.1189 13.9745 30.7529 13.1389 30.6431C12.4595 30.6223 11.9271 30.628 11.304 30.9122C10.4515 31.7248 10.4515 31.7248 10.0454 32.7962C10.056 34.3197 10.7528 35.1759 11.7898 36.2071C11.8838 36.3016 11.9778 36.3961 12.0746 36.4934C12.389 36.8092 12.7044 37.124 13.0197 37.4388C13.2457 37.6653 13.4716 37.8919 13.6974 38.1185C14.2472 38.6698 14.7976 39.2205 15.3482 39.7709C15.7965 40.2189 16.2445 40.6671 16.6923 41.1155C16.7561 41.1795 16.82 41.2434 16.8858 41.3092C17.0155 41.4391 17.1453 41.569 17.275 41.6989C18.4914 42.9168 19.7087 44.1338 20.9262 45.3505C22.0369 46.4605 23.1465 47.5716 24.2556 48.6831C25.3968 49.8268 26.5387 50.9698 27.6814 52.112C28.3219 52.7523 28.9622 53.3929 29.6017 54.0342C30.2041 54.6383 30.8075 55.2414 31.4115 55.8437C31.632 56.0639 31.8521 56.2844 32.0719 56.5053C34.4832 58.9275 37.0101 61.0425 40.3371 62.0451C40.4204 62.0703 40.5038 62.0955 40.5896 62.1214C42.2651 62.6018 43.8571 62.8138 45.5908 62.7991C45.6869 62.7988 45.7831 62.7984 45.8821 62.7981C47.4071 62.7905 48.8261 62.6537 50.2931 62.2234C50.4413 62.186 50.5894 62.1485 50.7421 62.1099C54.7531 61.0222 58.3271 57.9713 60.4113 54.4402C60.7856 53.7622 61.1236 53.0672 61.4491 52.3647C61.4919 52.2759 61.5347 52.1872 61.5788 52.0957C63.419 48.1677 63.1299 43.4457 61.7203 39.4508C61.5476 38.9766 61.3673 38.5055 61.1853 38.0348C60.9962 37.5394 60.821 37.0394 60.6464 36.5388C60.5835 36.3599 60.5205 36.181 60.4574 36.0022C60.3463 35.6859 60.2359 35.3693 60.126 35.0526C59.8099 34.1505 59.4659 33.265 59.106 32.3796C58.7628 31.5341 58.4587 30.693 58.2035 29.8161C58.0319 29.2601 57.8248 28.7192 57.6169 28.176C57.3593 27.4999 57.1167 26.8194 56.8795 26.1358C56.7994 25.9062 56.7192 25.6766 56.639 25.447C56.598 25.3295 56.5569 25.212 56.5147 25.0909C56.1909 24.1647 55.8648 23.2394 55.5329 22.3161C55.4493 22.0823 55.3665 21.8483 55.2844 21.614C55.1628 21.2675 55.0386 20.922 54.9139 20.5766C54.8782 20.4731 54.8425 20.3696 54.8057 20.2629C54.4056 19.1724 53.7971 18.4986 52.7578 17.9888C51.9465 17.7183 50.905 17.7012 50.1148 18.0536C49.3382 18.516 48.7693 19.2148 48.477 20.0643C48.3295 21.2524 48.6179 22.3232 48.9554 23.4532C49.0038 23.6208 49.052 23.7884 49.1 23.956C49.1945 24.2849 49.29 24.6134 49.3862 24.9418C49.546 25.4899 49.6971 26.0401 49.8472 26.5909C50.0545 27.3417 50.272 28.0893 50.4922 28.8364C50.5308 28.9676 50.5695 29.0988 50.6093 29.2339C50.6667 29.4285 50.6667 29.4285 50.7252 29.6271C51.0414 30.7089 51.3304 31.7968 51.6078 32.8892C51.6378 33.007 51.6678 33.1248 51.6988 33.2461C51.7249 33.3499 51.7511 33.4538 51.778 33.5607C51.8433 33.8218 51.8433 33.8218 51.9795 34.0741C51.9968 34.5506 52.0012 34.9171 51.8498 35.3713C51.5213 35.624 51.3189 35.6308 50.9012 35.6308C50.0092 35.3888 49.4976 34.7213 48.9265 34.029C48.7171 33.782 48.7171 33.782 48.3473 33.4904C47.9705 33.1763 47.6852 32.8524 47.3744 32.4769C47.1612 32.2262 47.1612 32.2262 46.7907 31.9337C46.4138 31.6197 46.1285 31.2958 45.8178 30.9203C45.6046 30.6695 45.6046 30.6695 45.234 30.3771C44.8572 30.063 44.5719 29.7391 44.2611 29.3636C44.048 29.1129 44.048 29.1129 43.6774 28.8204C43.3006 28.5064 43.0152 28.1825 42.7045 27.807C42.4913 27.5562 42.4913 27.5562 42.1207 27.2638C41.7439 26.9498 41.4586 26.6258 41.1478 26.2503C40.9347 25.9996 40.9347 25.9996 40.5641 25.7071C40.1873 25.3931 39.902 25.0692 39.5912 24.6937C39.378 24.4429 39.378 24.4429 39.0075 24.1505C38.6306 23.8365 38.3453 23.5126 38.0346 23.1371C37.8214 22.8863 37.8214 22.8863 37.4508 22.5939C37.074 22.2798 36.7887 21.9559 36.4779 21.5804C36.2647 21.3297 36.2647 21.3297 35.8942 21.0372C35.5173 20.7232 35.232 20.3993 34.9213 20.0238C34.7081 19.773 34.7081 19.773 34.3375 19.4806C33.9607 19.1665 33.6754 18.8426 33.3646 18.4671C33.1514 18.2164 33.1514 18.2164 32.7809 17.9239C32.404 17.6099 32.1187 17.286 31.808 16.9105C31.5948 16.6597 31.5948 16.6597 31.2242 16.3673C30.8476 16.0534 30.5624 15.7297 30.2518 15.3543C29.9605 15.0267 29.6154 14.7659 29.2784 14.4863C29.1223 14.2974 28.9663 14.1083 28.8127 13.9173C28.2085 13.226 27.4465 12.4844 26.5046 12.3748C25.4146 12.3342 24.7484 12.6951 23.9599 13.4486Z" fill="#222222"/>
    <path d="M36.8723 0.606301C36.9973 0.635732 37.1224 0.665162 37.2513 0.695484C38.7024 1.08504 40.73 2.35508 42.0625 3.03544C42.0625 2.94723 42.0625 3.46908 42.0625 3.03544C42.2223 3.07557 41.5723 2.85168 41.7353 2.89262C42.0725 3.03131 42.7595 3.46117 43.2529 3.84931C43.3493 3.92419 43.4457 3.99908 43.545 4.07623C45.1416 5.32899 45.067 5.34531 45.7484 6.07088C46.0079 6.33032 46.1821 6.50452 46.0079 6.33032C45.9197 6.33032 46.0935 6.33032 46.0079 6.33032C47.04 7.4472 48.0524 8.7543 48.8065 10.0759C48.8766 10.1976 48.9467 10.3194 49.0189 10.4448C49.4657 11.2697 49.7193 11.8593 49.5849 12.8C49.3817 13.072 49.2444 13.1734 48.9206 13.2784C48.8214 13.2917 48.7222 13.3051 48.6201 13.3189C48.5212 13.335 48.4224 13.351 48.3206 13.3675C48.0282 13.3189 48.0282 13.3189 47.7642 13.0579C47.4671 12.606 47.2298 12.141 46.9905 11.6569C46.381 10.4656 45.622 9.42963 44.7852 8.38953C44.7024 8.28418 44.6197 8.17883 44.5344 8.07029C43.93 7.33695 43.202 6.75953 42.4502 6.18428C42.3654 6.11844 42.2805 6.05259 42.193 5.98476C40.915 4.99999 39.6466 4.18346 38.155 3.5627C37.9371 3.47147 37.7217 3.37425 37.5067 3.27621C36.4333 2.81478 35.3247 2.60722 34.1772 2.40608C34.0471 2.38186 33.9169 2.35765 33.7828 2.3327C33.6658 2.31237 33.5488 2.29204 33.4283 2.2711C33.0376 2.13818 32.8532 1.95933 32.5915 1.64406C32.5226 1.35169 32.5226 1.35169 32.5266 1.05222C32.5253 0.953055 32.524 0.853895 32.5226 0.75173C32.5915 0.476581 32.5915 0.476581 32.8221 0.24957C33.9281 -0.372474 35.7176 0.330728 36.8723 0.606301Z" fill="#222222"/>
    <path d="M1.51826 43.9329C2.22971 44.3588 2.47165 44.9969 2.81546 45.7165C3.48426 47.0491 4.27514 48.1546 5.28015 49.2514C5.38402 49.3657 5.38402 49.3657 5.49 49.4823C7.98878 52.1963 11.7085 54.4078 15.4059 54.88C16.0233 54.9617 16.4658 55.0246 16.9955 55.3645C17.2572 55.8102 17.2513 56.0358 17.1739 56.533C17.0609 56.8398 16.9621 56.9726 16.6955 57.1643C14.6929 57.5606 12.1092 56.6177 10.3392 55.7374C10.2575 55.6975 10.1757 55.6576 10.0915 55.6164C8.73937 54.9511 7.51521 54.1857 6.31791 53.2727C6.20822 53.1921 6.09852 53.1115 5.9855 53.0285C3.8745 51.4244 2.13972 49.3691 0.869657 47.0462C0.797252 46.9179 0.724847 46.7896 0.650247 46.6575C-0.0765984 45.3067 -0.0765985 45.3067 0.0913348 44.4517C0.515787 43.9524 0.873935 43.8255 1.51826 43.9329Z" fill="#222222"/>
    <path d="M7.22597 41.5978C7.60389 41.8917 7.74794 42.2447 7.93943 42.6761C9.27217 45.4078 11.6856 47.3864 14.4903 48.473C15.3075 48.741 16.1247 48.9623 16.9712 49.1135C17.365 49.1995 17.4855 49.2607 17.8144 49.527C18.0249 49.9672 18.0403 50.2301 17.9492 50.7036C17.863 50.9377 17.863 50.9377 17.5955 51.1972C15.8963 51.7756 13.8087 50.7849 12.2881 50.0439C11.2827 49.5333 10.2787 48.9642 9.43121 48.2136C9.43121 48.128 9.21738 47.9542 9.21738 47.866C9.14681 47.8369 9.29008 47.896 9.21738 47.866C7.53928 46.9238 6.23772 44.77 5.5396 43.0248C5.46274 42.5569 5.43368 42.1434 5.70986 41.7357C6.23629 41.4042 6.63748 41.4717 7.22597 41.5978Z" fill="#222222"/>
    <path d="M34.0553 6.01551C36.6969 6.69128 38.9544 7.68737 40.9532 9.55697C41.021 9.61922 41.0887 9.68147 41.1585 9.7456C42.4924 10.98 44.2254 12.7814 44.4967 14.6374C44.4671 15.0589 44.3209 15.2703 44.0422 15.5809C43.6044 15.8241 43.3919 15.876 42.8991 15.7836C42.3625 15.3273 42.0643 14.8276 41.764 14.2026C41.31 13.3047 40.7626 12.6024 40.0452 11.8919C39.9355 11.7769 39.8258 11.6618 39.7128 11.5433C39.6085 11.4443 39.5041 11.3453 39.3966 11.2433C39.2948 11.1425 39.2948 11.1425 39.1909 11.0396C37.6267 9.56787 35.3992 8.50571 33.2702 8.29711C32.7666 8.2343 32.4661 8.13304 32.1333 7.75812C31.8728 7.35173 31.8728 7.35173 31.8647 6.88149C32.2265 5.73224 33.0217 5.82653 34.0553 6.01551Z" fill="#222222"/>
</svg>
