<svg width="25" height="25" viewBox="0 0 25 25" fill="none" xmlns="http://www.w3.org/2000/svg">
    <path d="M15.8 13.2052C15.5046 13.7575 15.0523 14.2098 14.5 14.5052M10.5 14.5042C10.0188 14.2621 9.61159 13.8949 9.32125 13.4411C9.03092 12.9873 8.86814 12.4637 8.85002 11.9252V6.34823C8.92946 5.45669 9.35726 4.63244 10.0406 4.05433C10.7239 3.47622 11.6076 3.19088 12.5 3.26023C13.3909 3.19365 14.2722 3.48038 14.9534 4.05842C15.6345 4.63647 16.0608 5.45938 16.14 6.34923V8.86723M5.83002 11.1262C5.83569 12.0041 6.01536 12.8721 6.35866 13.68C6.70195 14.488 7.20205 15.2198 7.83002 15.8332C8.03402 16.0752 8.25735 16.2986 8.50002 16.5032M11.32 17.6822C12.767 17.9425 14.2595 17.7175 15.5653 17.042C16.8712 16.3666 17.9173 15.2786 18.541 13.9472C18.9534 13.0639 19.1681 12.1011 19.17 11.1262M12.5 21.7502V17.7522M8.86002 21.7502H16.14" stroke="#222222" stroke-width="1.7" stroke-linecap="round" stroke-linejoin="round"/>
    <path d="M20.5 4.50977L16.14 8.86677L10.51 14.4938L8.53 16.4728L4.5 20.4998" stroke="#222222" stroke-width="1.7" stroke-linecap="round" stroke-linejoin="round"/>
</svg>
