<svg width="11" height="12" viewBox="0 0 11 12" fill="none" xmlns="http://www.w3.org/2000/svg">
    <path d="M3.52791 2.67673V3.78557V4.94436V8.20582C3.22567 8.02781 2.87146 7.92335 2.49104 7.92335C1.39171 7.92335 0.5 8.78018 0.5 9.8361C0.5 10.8932 1.39147 11.75 2.49104 11.75C3.58989 11.75 4.48112 10.8934 4.48136 9.83656V4.68089L9.54655 3.28132V6.5547C9.24431 6.37669 8.8901 6.27222 8.50968 6.27222C7.40987 6.27222 6.51864 7.12883 6.51864 8.18475C6.51864 9.24159 7.40987 10.0986 8.50968 10.0986C9.54512 10.0986 10.3961 9.33689 10.4905 8.36436H10.5V3.01786V2.19631V0.75L3.52791 2.67673Z" fill="#222222"/>
</svg>
