<svg width="24" height="25" viewBox="0 0 24 25" fill="none" xmlns="http://www.w3.org/2000/svg">
    <path d="M15 18.5V19.25C15 20.0456 14.6839 20.8087 14.1213 21.3713C13.5587 21.9339 12.7956 22.25 12 22.25C11.2043 22.25 10.4413 21.9339 9.87868 21.3713C9.31607 20.8087 9 20.0456 9 19.25V18.5M20.0475 16.9733C18.8437 15.5 17.9939 14.75 17.9939 10.6883C17.9939 6.96875 16.0945 5.64359 14.5312 5C14.3236 4.91469 14.1281 4.71875 14.0648 4.50547C13.7906 3.57219 13.0219 2.75 12 2.75C10.9781 2.75 10.2089 3.57266 9.9375 4.50641C9.87422 4.72203 9.67875 4.91469 9.47109 5C7.90594 5.64453 6.00844 6.965 6.00844 10.6883C6.00609 14.75 5.15625 15.5 3.9525 16.9733C3.45375 17.5836 3.89062 18.5 4.76297 18.5H19.2417C20.1094 18.5 20.5434 17.5808 20.0475 16.9733Z" stroke="#222222" stroke-width="1.5" stroke-linecap="round" stroke-linejoin="round"/>
    <circle cx="17" cy="7.5" r="3" fill="#2EAED2"/>
</svg>
