<svg width="21" height="23" viewBox="0 0 21 23" fill="none" xmlns="http://www.w3.org/2000/svg">
    <path fill-rule="evenodd" clip-rule="evenodd" d="M7.172 14.3295C11.017 18.1745 14.58 18.5955 15.626 18.6345C16.89 18.6805 18.18 17.6485 18.738 16.5915C17.848 15.5475 16.689 14.7375 15.42 13.8595C14.671 14.6075 13.748 15.9975 12.519 15.4995C11.82 15.2185 10.094 14.4235 8.586 12.9145C7.078 11.4055 6.283 9.68046 6 8.98246C5.502 7.75146 6.896 6.82646 7.645 6.07746C6.767 4.78746 5.971 3.59846 4.929 2.75346C3.857 3.31346 2.819 4.59346 2.866 5.87446C2.905 6.92046 3.326 10.4835 7.172 14.3295ZM15.552 20.6335C14.112 20.5805 10.031 20.0165 5.757 15.7435C1.484 11.4695 0.921 7.38946 0.867 5.94846C0.787 3.75246 2.469 1.61946 4.412 0.78646C4.64598 0.685427 4.9022 0.64696 5.15553 0.674835C5.40886 0.70271 5.65059 0.795969 5.857 0.94546C7.465 2.11846 8.574 3.89546 9.527 5.28746C9.72525 5.57691 9.81607 5.92656 9.78375 6.2759C9.75142 6.62525 9.59799 6.9523 9.35 7.20046L7.994 8.55746C8.309 9.25246 8.95 10.4505 10 11.5005C11.05 12.5505 12.248 13.1915 12.944 13.5065L14.299 12.1505C14.5478 11.9014 14.8763 11.7478 15.2269 11.7166C15.5776 11.6853 15.9281 11.7784 16.217 11.9795C17.637 12.9635 19.305 14.0565 20.521 15.6135C20.6826 15.8214 20.7854 16.0689 20.8187 16.3301C20.8519 16.5913 20.8144 16.8567 20.71 17.0985C19.873 19.0515 17.755 20.7145 15.552 20.6335Z" fill="#222222"/>
</svg>
