<svg width="115" height="148" viewBox="0 0 115 148" fill="none" xmlns="http://www.w3.org/2000/svg">
    <path d="M60.7363 79.7389C59.1267 79.2658 57.3798 79.7487 55.7898 79.2461C54.7397 78.4922 53.9644 77.4278 53.0614 76.5113C45.6565 68.7798 36.4604 63.187 27.8041 57.0373C22.5976 53.0607 18.1223 47.2461 17.9407 40.4361C17.5923 35.5528 19.5061 30.6794 22.7154 27.0576C25.4438 23.9089 29.2861 21.9132 33.2364 20.7897C42.668 18.2914 53.4393 25.2295 54.8918 34.9418C51.7316 34.1879 48.7529 32.7983 45.5583 32.1725C46.1129 33.8035 47.4722 34.9172 48.6155 36.1294C51.977 39.5344 55.255 43.0231 58.6655 46.3788C61.6245 42.6486 62.5323 37.6766 62.2084 33.0151C61.8846 27.9298 59.3574 23.1352 55.6328 19.7302C50.1858 14.5316 42.5748 11.4814 35.0275 12.1712C26.7638 12.9252 18.8191 17.4438 14.1916 24.4065C11.3503 28.8562 9.50523 34.0795 9.64754 39.421C9.4856 46.433 12.6164 53.1592 17.1752 58.3382C20.674 62.4823 25.3407 65.3305 29.7817 68.3215C35.4544 72.2341 41.1026 76.2353 46.1423 80.9658C47.0452 81.8627 48.1248 82.6905 48.6352 83.8879C48.4683 85.6914 47.2808 87.2978 47.4329 89.1753C47.055 93.1124 49.278 97.1186 52.7719 98.927C55.0636 100.322 57.8901 99.8781 60.4419 99.7894C65.5993 98.6314 69.0638 92.8562 67.8959 87.7068C67.2825 83.9569 64.3185 80.8229 60.7363 79.7389ZM61.9336 91.511C60.9228 94.5464 56.3836 95.522 54.3962 92.9252C52.3156 90.7324 53.4786 86.7706 56.3051 85.8688C59.4899 84.4595 63.3175 88.2834 61.9336 91.511Z" fill="#2EAED2"/>
    <path d="M96.3183 19.272C91.5682 15.1623 85.498 12.4324 79.1971 12.1318C72.4203 11.7475 65.7662 14.6597 60.7805 19.1537C62.4538 21.4549 63.9211 23.9138 64.9565 26.5796C67.0273 24.8697 69.0736 23.0416 71.5616 21.9526C74.7954 20.4004 78.5592 20.0259 82.0286 20.9572C87.0634 22.3172 91.8135 25.4068 94.4192 30.0388C97.3439 34.8334 97.9377 40.988 95.7982 46.2064C93.4918 52.1392 88.4963 56.4607 83.2407 59.7475C76.0909 64.6899 68.8282 69.6077 62.6108 75.7376C65.138 76.8217 67.3365 78.502 69.3582 80.3499C75.3352 75.0379 81.9304 70.4897 88.565 66.0499C96.8581 60.7823 104.116 52.5285 105.176 42.3825C106.226 33.8282 102.683 24.988 96.3183 19.272Z" fill="#2EAED2"/>
    <path d="M33.009 121.248V138H29.649V130.872H22.473V138H19.113V121.248H22.473V128.136H29.649V121.248H33.009ZM35.4522 131.304C35.4522 129.96 35.7162 128.768 36.2442 127.728C36.7882 126.688 37.5162 125.888 38.4282 125.328C39.3562 124.768 40.3882 124.488 41.5242 124.488C42.5162 124.488 43.3802 124.688 44.1162 125.088C44.8682 125.488 45.4682 125.992 45.9162 126.6V124.704H49.3002V138H45.9162V136.056C45.4842 136.68 44.8842 137.2 44.1162 137.616C43.3642 138.016 42.4922 138.216 41.5002 138.216C40.3802 138.216 39.3562 137.928 38.4282 137.352C37.5162 136.776 36.7882 135.968 36.2442 134.928C35.7162 133.872 35.4522 132.664 35.4522 131.304ZM45.9162 131.352C45.9162 130.536 45.7562 129.84 45.4362 129.264C45.1162 128.672 44.6842 128.224 44.1402 127.92C43.5962 127.6 43.0122 127.44 42.3882 127.44C41.7642 127.44 41.1882 127.592 40.6602 127.896C40.1322 128.2 39.7002 128.648 39.3642 129.24C39.0442 129.816 38.8842 130.504 38.8842 131.304C38.8842 132.104 39.0442 132.808 39.3642 133.416C39.7002 134.008 40.1322 134.464 40.6602 134.784C41.2042 135.104 41.7802 135.264 42.3882 135.264C43.0122 135.264 43.5962 135.112 44.1402 134.808C44.6842 134.488 45.1162 134.04 45.4362 133.464C45.7562 132.872 45.9162 132.168 45.9162 131.352ZM55.9418 126.768C56.3738 126.064 56.9338 125.512 57.6218 125.112C58.3258 124.712 59.1258 124.512 60.0218 124.512V128.04H59.1338C58.0778 128.04 57.2778 128.288 56.7338 128.784C56.2058 129.28 55.9418 130.144 55.9418 131.376V138H52.5818V124.704H55.9418V126.768ZM66.1969 127.464V133.896C66.1969 134.344 66.3009 134.672 66.5089 134.88C66.7329 135.072 67.1009 135.168 67.6129 135.168H69.1729V138H67.0609C64.2289 138 62.8129 136.624 62.8129 133.872V127.464H61.2289V124.704H62.8129V121.416H66.1969V124.704H69.1729V127.464H66.1969ZM76.6776 138.216C75.5896 138.216 74.6136 138.024 73.7496 137.64C72.8856 137.24 72.1976 136.704 71.6856 136.032C71.1896 135.36 70.9176 134.616 70.8696 133.8H74.2536C74.3176 134.312 74.5656 134.736 74.9976 135.072C75.4456 135.408 75.9976 135.576 76.6536 135.576C77.2936 135.576 77.7896 135.448 78.1416 135.192C78.5096 134.936 78.6936 134.608 78.6936 134.208C78.6936 133.776 78.4696 133.456 78.0216 133.248C77.5896 133.024 76.8936 132.784 75.9336 132.528C74.9416 132.288 74.1256 132.04 73.4856 131.784C72.8616 131.528 72.3176 131.136 71.8536 130.608C71.4056 130.08 71.1816 129.368 71.1816 128.472C71.1816 127.736 71.3896 127.064 71.8056 126.456C72.2376 125.848 72.8456 125.368 73.6296 125.016C74.4296 124.664 75.3656 124.488 76.4376 124.488C78.0216 124.488 79.2856 124.888 80.2296 125.688C81.1736 126.472 81.6936 127.536 81.7896 128.88H78.5736C78.5256 128.352 78.3016 127.936 77.9016 127.632C77.5176 127.312 76.9976 127.152 76.3416 127.152C75.7336 127.152 75.2616 127.264 74.9256 127.488C74.6056 127.712 74.4456 128.024 74.4456 128.424C74.4456 128.872 74.6696 129.216 75.1176 129.456C75.5656 129.68 76.2616 129.912 77.2056 130.152C78.1656 130.392 78.9576 130.64 79.5816 130.896C80.2056 131.152 80.7416 131.552 81.1896 132.096C81.6536 132.624 81.8936 133.328 81.9096 134.208C81.9096 134.976 81.6936 135.664 81.2616 136.272C80.8456 136.88 80.2376 137.36 79.4376 137.712C78.6536 138.048 77.7336 138.216 76.6776 138.216ZM97.3877 124.704L89.1557 144.288H85.5797L88.4597 137.664L83.1317 124.704H86.8997L90.3317 133.992L93.8117 124.704H97.3877Z" fill="#2EAED2"/>
</svg>
