<svg width="24" height="23" viewBox="0 0 24 23" fill="none" xmlns="http://www.w3.org/2000/svg">
    <path d="M12 19.0333L6.46668 22.3666C6.22223 22.5222 5.96668 22.5888 5.70001 22.5666C5.43334 22.5444 5.20001 22.4555 5.00001 22.2999C4.80001 22.1444 4.64446 21.9502 4.53334 21.7173C4.42223 21.4844 4.40001 21.223 4.46668 20.9333L5.93334 14.6333L1.03334 10.3999C0.811122 10.1999 0.672456 9.97193 0.617345 9.71593C0.562234 9.45993 0.578678 9.21016 0.666678 8.9666C0.754678 8.72305 0.888011 8.52305 1.06668 8.3666C1.24534 8.21016 1.48979 8.11016 1.80001 8.0666L8.26668 7.49993L10.7667 1.5666C10.8778 1.29994 11.0502 1.09993 11.284 0.966601C11.5178 0.833268 11.7565 0.766602 12 0.766602C12.2436 0.766602 12.4822 0.833268 12.716 0.966601C12.9498 1.09993 13.1222 1.29994 13.2333 1.5666L15.7333 7.49993L22.2 8.0666C22.5111 8.11105 22.7556 8.21105 22.9333 8.3666C23.1111 8.52216 23.2445 8.72216 23.3333 8.9666C23.4222 9.21105 23.4391 9.46127 23.384 9.71727C23.3289 9.97327 23.1898 10.2008 22.9667 10.3999L18.0667 14.6333L19.5333 20.9333C19.6 21.2222 19.5778 21.4835 19.4667 21.7173C19.3556 21.951 19.2 22.1453 19 22.2999C18.8 22.4546 18.5667 22.5435 18.3 22.5666C18.0333 22.5897 17.7778 22.523 17.5333 22.3666L12 19.0333Z" fill="#2EAED2"/>
</svg>
