<svg width="45" height="74" viewBox="0 0 45 74" fill="none" xmlns="http://www.w3.org/2000/svg">
<path d="M11.9863 2.54688C13.7376 0.153837 16.6858 -0.743039 19.4014 0.682617C20.9324 1.59766 21.6656 2.91706 22.0869 4.60156C22.2558 5.33119 22.406 6.06495 22.5547 6.79883C22.6969 7.50021 22.8435 8.2007 22.9893 8.90137C23.0186 9.04293 23.0479 9.1852 23.0781 9.33105C23.3502 10.6404 23.6403 11.9458 23.9365 13.25C24.0335 13.6779 24.1307 14.1062 24.2275 14.5342C24.2514 14.6395 24.2752 14.745 24.2998 14.8535C24.5499 15.961 24.7919 17.0703 25.0332 18.1797C25.4339 20.0219 25.8365 21.864 26.2471 23.7041C26.2964 23.9253 26.3456 24.1469 26.3945 24.3682C26.9811 27.0983 26.9807 27.0989 27.8701 29.7412C27.9331 29.8972 27.9966 30.0531 28.0615 30.2139C28.1078 30.3253 28.1544 30.437 28.2021 30.5518C29.1292 28.6844 29.4743 26.653 29.8896 24.6289C30.1811 23.2111 30.4915 21.7981 30.8086 20.3857C31.3125 18.141 31.7934 15.8925 32.2539 13.6387C33.1587 9.21124 33.1585 9.21084 33.5742 7.34668C33.6354 7.07128 33.6952 6.79526 33.7549 6.51953C34.0494 5.22088 34.4221 4.22044 35.3428 3.23047C35.4519 3.11084 35.5614 2.99142 35.6738 2.86816C36.8157 1.7955 37.9861 1.73901 39.4756 1.77246C40.9124 1.84341 42.0732 2.42574 43.0908 3.42285C44.2367 4.79761 44.3938 6.20318 44.2705 7.94434C44.1789 8.7873 44.0204 9.61962 43.8662 10.4531C43.8241 10.6886 43.7829 10.9246 43.7412 11.1602C43.6318 11.775 43.5203 12.3895 43.4082 13.0039C43.2958 13.6218 43.1849 14.2402 43.0742 14.8584C43.0309 15.1003 42.9876 15.3421 42.9443 15.584C42.9232 15.7021 42.9017 15.8207 42.8799 15.9424C42.8168 16.2939 42.7538 16.6456 42.6904 16.9971C42.4597 18.2779 42.2348 19.559 42.04 20.8457C41.9112 21.6945 41.7364 22.5308 41.5605 23.3711C41.4658 23.8596 41.4062 24.342 41.3613 24.8369C41.3224 25.1562 41.2582 25.4585 41.1836 25.7715C41.0357 26.4149 40.9196 27.0593 40.8154 27.7109C40.7969 27.8255 40.7779 27.9405 40.7588 28.0586C40.7199 28.3 40.682 28.5418 40.6436 28.7832C40.5862 29.1426 40.5274 29.5021 40.4688 29.8613C40.0586 32.4025 39.7972 34.896 39.8096 37.4717C39.8112 37.8635 39.8095 38.2557 39.8076 38.6475C39.8011 41.7049 39.8014 41.7052 40.5576 44.6455C41.0759 46.0567 41.3788 47.4956 41.6787 48.9648C41.7584 49.3387 41.8474 49.7086 41.9414 50.0791C42.5814 52.6575 42.5577 55.2513 41.9121 57.8271C41.8768 57.9697 41.8411 58.1129 41.8047 58.2598C41.7009 58.653 41.5865 59.0421 41.4697 59.4316C41.431 59.576 41.3915 59.7214 41.3516 59.8701C40.6097 62.4966 39.1173 64.9508 37.3418 67.0166C37.2548 67.1239 37.1677 67.2313 37.0781 67.3418C34.1406 70.8358 29.462 72.5372 25.0059 72.9619C19.6038 73.3541 13.6986 72.6264 9.35352 69.1299C8.7838 68.6423 8.24705 68.1248 7.71191 67.6006C7.6143 67.5128 7.51659 67.4244 7.41602 67.334C4.18206 64.3797 2.61924 59.6367 1.81543 55.4941C1.78809 55.3583 1.76059 55.222 1.73242 55.082C1.17928 52.2957 0.979369 49.4844 0.901367 46.6484C0.857863 45.0994 0.754067 43.6814 0.332031 42.1846C0.0142024 40.9252 0.0155366 39.6569 0.00976562 38.3643C0.00672837 38.1947 0.00312924 38.0252 0 37.8506C-0.0083898 36.0067 0.391711 34.7955 1.66309 33.4551C2.49883 32.6536 3.37682 32.24 4.46875 31.8652C4.645 31.8021 4.82134 31.7389 5.00293 31.6738C5.66476 31.5404 6.3018 31.5491 6.97461 31.5732C6.97765 31.4138 6.98027 31.2541 6.9834 31.0898C7.13318 29.9448 7.89472 28.9616 8.77148 28.2363C9.92189 27.4242 11.2828 26.8826 12.7041 26.8916C12.8346 26.8921 12.9652 26.8921 13.0996 26.8926C13.234 26.8938 13.3684 26.8952 13.5068 26.8965C13.6441 26.8971 13.7815 26.8978 13.9229 26.8984C14.26 26.9001 14.5974 26.9023 14.9346 26.9053C14.89 26.7842 14.8457 26.6629 14.7998 26.5381C14.6302 25.9986 14.5291 25.465 14.4434 24.9082C14.4262 24.8009 14.4093 24.6935 14.3916 24.583C14.3548 24.3528 14.3184 24.1219 14.2822 23.8916C14.1858 23.2794 14.0862 22.6675 13.9873 22.0557C13.9675 21.9332 13.9481 21.8107 13.9277 21.6846C13.7593 20.6454 13.5767 19.6088 13.3867 18.5732C13.063 16.8073 12.7548 15.0388 12.4502 13.2695C12.025 10.7593 12.0245 10.7592 11.5518 8.25781C11.1599 6.27617 10.8852 4.36019 11.9863 2.54688ZM21.1084 37.1426C20.1191 36.9549 19.0541 36.6837 18.1777 37.2617C17.6485 37.9793 17.6484 37.98 17.6953 39.5625C17.8508 41.3759 19.0062 43.2031 20.3428 44.416C20.4589 44.5125 20.5719 44.6066 20.6846 44.7002C22.47 46.1888 24.7743 46.9735 27.0225 47.4717C27.2086 47.5112 27.3897 47.5496 27.5703 47.5879C27.8335 47.6443 27.8339 47.644 28.0918 47.6992C28.51 47.7821 28.8352 47.8345 29.1807 48.084C29.4115 48.3427 29.4115 48.3425 29.4355 48.7197C29.4357 48.9475 29.4364 48.9478 29.4365 49.1709C29.4388 49.3447 29.4412 49.5139 29.4434 49.6826C29.4563 51.952 29.6972 54.1126 30.0664 56.3525C30.084 56.457 30.1011 56.5588 30.1182 56.6602C29.8689 56.5209 29.6238 56.374 29.3818 56.2227C28.1157 54.5504 27.5609 52.6003 27.2412 50.5723C27.2172 50.4107 27.1933 50.2535 27.1699 50.0967C26.6609 50.2646 26.6608 50.2654 25.7539 51.2959C25.6342 51.4338 25.5176 51.5674 25.4014 51.7012C23.1144 54.1921 21.9044 57.5306 21.3555 60.8096C21.3018 61.1497 21.2442 61.4893 21.1826 61.8281C21.1304 62.1064 21.0792 62.3855 21.0283 62.6641C21.0117 62.7554 20.9946 62.844 20.9785 62.9326H20.5371C20.287 62.0102 20.2073 61.1673 20.209 60.2129C20.2108 60.0436 20.2121 59.8792 20.2139 59.7148C20.2159 56.2015 21.2738 52.8661 23.6973 50.2158C24.0562 49.852 24.3084 49.543 24.5166 49.0762C24.2221 48.9305 24.2219 48.9301 23.8711 48.8203C23.7338 48.7802 23.6001 48.741 23.4668 48.7021C23.2274 48.632 22.9876 48.5617 22.748 48.4922C22.6016 48.7928 22.449 49.083 22.2734 49.3682C22.0172 49.7639 21.7632 50.153 21.5459 50.5713C21.5036 50.658 21.4619 50.742 21.4209 50.8262C21.1264 50.8262 21.1261 50.8268 20.9287 51.0176C20.8056 51.1417 20.8053 51.142 20.6846 51.2637C18.9664 52.4895 17.1008 52.6445 15.0273 52.3574C14.8958 52.3326 14.7673 52.3092 14.6396 52.2852C14.4876 52.6231 14.4873 52.6239 14.0869 52.9873C12.54 54.2379 10.7301 54.3845 8.80664 54.2295C7.04484 53.9928 5.70452 52.7987 4.65332 51.4551C4.27899 50.9561 3.89397 50.5219 3.43652 50.0967C3.41582 50.8378 3.41646 50.8385 3.70996 52.71C3.72682 52.8165 3.74242 52.9201 3.75879 53.0234C4.49696 57.7013 5.84365 62.5481 9.33301 65.9951C12.8436 69.4164 17.2953 70.7223 22.1562 70.71C22.2696 70.7094 22.3802 70.7095 22.4902 70.709C24.7741 70.7046 26.9301 70.5969 29.0996 69.8086C29.2454 69.7518 29.3878 69.6967 29.5293 69.6416C30.0451 69.451 30.5518 69.2511 31.0557 69.0312C34.8672 67.2205 37.4497 63.7537 38.8711 59.8975C38.9244 59.7485 38.9766 59.6036 39.0283 59.459C39.3838 58.4682 39.6313 57.504 39.79 56.4639C39.8096 56.3324 39.8286 56.2048 39.8477 56.0771C39.8794 55.9098 39.9106 55.7474 39.9414 55.585C39.9661 55.4548 39.9897 55.3285 40.0137 55.2021C40.2647 53.9181 40.1995 52.63 39.9141 51.3594C39.8634 51.1481 39.8632 51.1476 39.8135 50.9404C39.7432 50.6358 39.6733 50.3309 39.6025 50.0264C39.4903 49.5557 39.378 49.0848 39.2695 48.6133C38.8509 46.7852 38.4616 44.9644 37.5791 43.29C36.5536 41.5133 36.5532 41.513 30.1104 39.6533C30.0059 39.6233 29.9041 39.5946 29.8027 39.5654C29.5949 39.5056 29.3866 39.4455 29.1787 39.3857C28.5356 39.2017 27.8962 39.0112 27.2627 38.7969C25.7415 38.2793 24.2179 37.8451 22.6504 37.4854C22.5332 37.4588 22.4194 37.433 22.3057 37.4072C21.9071 37.3159 21.5084 37.2279 21.1084 37.1426ZM6.19141 33.8975C5.11568 33.8821 4.09476 34.3668 3.26855 35.0381C2.40518 35.9247 2.28827 36.7567 2.23145 37.9521C2.11643 42.3506 3.83614 47.4665 6.8584 50.7422C7.77993 51.6188 8.78695 52.1535 10.0791 52.2031C11.1608 52.1543 12.0718 51.8579 12.8711 51.1182C12.8087 50.7503 12.7163 50.5244 12.5029 50.2129C9.25818 45.9042 7.8199 39.3897 6.88086 34.2061C6.85381 34.055 6.85368 34.0545 6.82715 33.9062C6.68866 33.9037 6.68844 33.9039 6.55273 33.9014C6.3705 33.8994 6.37009 33.8994 6.19141 33.8975ZM15.5244 29.5312C14.0107 28.5591 11.7913 29.019 10.3652 29.9688C9.56047 30.6354 9.12235 31.3177 8.96582 32.3379C8.71543 37.2656 11.2421 45.3257 14.4092 49.1221C14.4876 49.2057 14.5645 49.287 14.6406 49.3682C15.0016 49.758 15.327 50.0305 15.8193 50.2432C16.9727 50.4325 18.0173 50.3351 19.0342 49.75C19.8516 49.1517 20.4572 48.4715 20.6846 47.4717C20.4872 47.3271 20.2905 47.1809 20.0947 47.0342C18.1572 45.5013 16.0303 43.2912 15.6924 40.7314C15.6853 40.5931 15.6787 40.4585 15.6719 40.3242C15.6047 39.0266 15.4423 37.5596 16.1143 36.3867C16.2301 36.269 16.3426 36.1543 16.4551 36.04C16.7038 35.6572 16.7037 35.6569 16.6777 35.3506C16.5456 34.7371 16.4215 34.1233 16.3154 33.5049C16.2501 33.1114 16.1826 32.7179 16.1123 32.3252C16.0759 32.1231 16.0396 31.9209 16.0039 31.7188C15.9538 31.4111 15.9033 31.1036 15.8477 30.7969C15.8207 30.6504 15.8204 30.6503 15.7939 30.5068C15.7014 29.9708 15.7013 29.9704 15.5244 29.5312ZM17.9453 2.48633C16.2977 2.09393 14.9633 2.41788 13.9307 3.76855C13.3085 4.80818 13.5291 6.0961 13.7412 7.2334C13.9181 8.15351 14.0587 9.07763 14.1982 10.0039C14.3092 10.7458 14.4087 11.4907 14.5664 12.2246C14.7518 13.0105 14.8881 13.7955 15.0088 14.5938C15.1628 15.6321 15.2974 16.6739 15.5312 17.6982C15.6179 18.0658 15.6966 18.4294 15.7666 18.8008C16.2898 21.8272 16.8482 24.8485 17.4414 27.8623C17.7403 29.3781 18.0332 30.8951 18.3203 32.4131C18.3407 32.521 18.3611 32.6257 18.3809 32.7305C18.4876 33.2951 18.5938 33.8601 18.7002 34.4248C18.723 34.5461 18.7454 34.6645 18.7676 34.7822C19.0353 34.7975 19.3036 34.8123 19.5713 34.8281C19.6837 34.8348 19.7932 34.8412 19.9023 34.8477C21.5132 34.9391 22.9756 35.308 24.5205 35.7422C24.8907 35.8467 25.2612 35.9507 25.6318 36.0537C27.2501 36.5026 28.8598 36.9718 30.46 37.4805C30.8073 37.5909 31.155 37.7 31.5039 37.8057C32.9091 38.2267 34.2799 38.6795 35.6309 39.251C36.1947 39.4902 36.7588 39.6984 37.3418 39.8867C37.4833 36.216 37.6044 32.5756 38.291 28.957C38.4861 27.9847 38.6506 27.0095 38.8066 26.0303C39.2605 23.1637 39.7535 20.3034 40.2529 17.4443C40.2948 17.2045 40.2949 17.2039 40.3359 16.9688C40.638 15.2345 40.939 13.5002 41.2666 11.7705C41.2924 11.6348 41.3177 11.5028 41.3428 11.3711C41.4586 10.7608 41.5745 10.1505 41.6943 9.54102C41.9374 8.30695 42.3264 6.98575 41.9121 5.75586C41.3784 4.96372 40.7953 4.3768 39.873 4.08008C38.8932 3.8517 38.1886 3.93916 37.3301 4.46191C36.5067 5.25688 36.1981 6.15487 35.9531 7.24902C35.8956 7.52355 35.8382 7.79823 35.7783 8.07227C35.3074 10.2111 35.3072 10.2119 34.4307 14.543C34.1188 16.0878 33.798 17.6273 33.4219 19.1582C33.1428 20.293 32.8977 21.4304 32.6797 22.5781C32.3678 24.234 32.0471 25.8881 31.6768 27.5322C31.6389 27.6972 31.6022 27.8574 31.5654 28.0176C31.1948 29.6708 30.7016 31.8447 29.2529 32.9043C28.5293 33.1048 27.9181 33.1622 27.207 32.8584C25.0764 29.711 25.0765 29.7107 24.3652 25.8125C24.2419 25.2223 24.1167 24.6325 23.9902 24.043C23.9642 23.9218 23.9383 23.8042 23.9131 23.6865C23.734 22.849 23.5507 22.0129 23.3477 21.1807C22.6091 18.1945 21.9433 15.1892 21.3184 12.1777C21.2549 11.8713 21.1907 11.5642 21.127 11.2578C20.9319 10.3218 20.7378 9.3854 20.5537 8.44727C20.4668 8.00326 20.3779 7.55966 20.2881 7.11621C20.2447 6.9031 20.202 6.68979 20.1592 6.47656C20.0198 5.74116 19.8782 5.01297 19.6523 4.29785C19.2475 3.50093 18.7953 2.84273 17.9453 2.48633Z" fill="#222222"/>
</svg>
