<svg width="32" height="32" viewBox="0 0 32 32" fill="none" xmlns="http://www.w3.org/2000/svg">
    <path d="M22.6667 16V10.6667C22.6667 9.95942 22.3857 9.28115 21.8856 8.78105C21.3855 8.28095 20.7072 8 20 8H6.66667C5.95942 8 5.28115 8.28095 4.78105 8.78105C4.28095 9.28115 4 9.95942 4 10.6667V21.3333C4 22.0406 4.28095 22.7189 4.78105 23.219C5.28115 23.719 5.95942 24 6.66667 24H20C20.7072 24 21.3855 23.719 21.8856 23.219C22.3857 22.7189 22.6667 22.0406 22.6667 21.3333V16ZM22.6667 16L28 10.6667V21.3333L22.6667 16ZM13.3333 12V16M13.3333 16V20M13.3333 16H17.3333M13.3333 16H9.33333" stroke="#222222" stroke-width="2" stroke-linecap="round" stroke-linejoin="round"/>
</svg>
