<svg width="25" height="25" viewBox="0 0 25 25" fill="none" xmlns="http://www.w3.org/2000/svg">
    <path d="M13.3467 4.02148V4.02051C13.392 4.03957 13.4308 4.07237 13.458 4.11328C13.4851 4.15414 13.4999 4.20192 13.5 4.25098V20.75C13.5 20.7992 13.4853 20.8477 13.458 20.8887C13.4308 20.9296 13.392 20.9614 13.3467 20.9805C13.3013 20.9995 13.2514 21.0044 13.2031 20.9951C13.1789 20.9905 13.1554 20.983 13.1338 20.9717L13.0752 20.9287L8.68457 16.6162L8.53906 16.4736H5.75C5.28598 16.4736 4.84086 16.289 4.5127 15.9609C4.18462 15.6329 4.00013 15.1876 4 14.7236V10.2383C4 9.77418 4.18455 9.32916 4.5127 9.00098C4.84088 8.67279 5.28587 8.48828 5.75 8.48828H8.53906L8.68457 8.34668L13.0752 4.07129C13.1104 4.03696 13.1558 4.01307 13.2041 4.00391C13.2487 3.99556 13.2983 4.00121 13.3467 4.02148ZM12.1514 5.66797L8.81641 8.91895C8.76965 8.96445 8.70684 8.98934 8.6416 8.98926H5.75C5.41857 8.98926 5.10061 9.12117 4.86621 9.35547C4.63188 9.5898 4.50011 9.90788 4.5 10.2393V14.7236C4.50013 15.055 4.6319 15.3731 4.86621 15.6074C5.10061 15.8417 5.41859 15.9736 5.75 15.9736H8.6416C8.69066 15.9736 8.73886 15.9871 8.7793 16.0137L8.81738 16.0449L12.1494 19.3184L13 20.1543V4.84082L12.1514 5.66797ZM17.7158 5.49121C17.7487 5.48784 17.7818 5.49142 17.8135 5.50098C17.8451 5.51055 17.8749 5.52587 17.9004 5.54688L17.9443 5.58398H17.9453L17.9521 5.58984C18.0289 5.65651 18.104 5.725 18.1777 5.79492L18.4023 6.01758C18.7956 6.42863 19.1506 6.87537 19.4619 7.35156L19.4629 7.35352C20.472 8.8813 21.0086 10.6729 21.0049 12.5039V12.5059C21.0109 14.3349 20.4738 16.1252 19.4629 17.6494L19.4619 17.6523C19.1507 18.1281 18.7947 18.5729 18.4004 18.9824C18.2604 19.1279 18.1419 19.2393 18.0537 19.3193L17.9521 19.4072L17.915 19.4385C17.8631 19.4782 17.7973 19.4962 17.7324 19.4883C17.6675 19.4802 17.6081 19.4467 17.5674 19.3955C17.5267 19.3443 17.5079 19.2789 17.5146 19.2139C17.5203 19.1603 17.5431 19.1106 17.5791 19.0713L17.623 19.0322L17.6387 19.0166C17.7779 18.8948 17.9117 18.7671 18.04 18.6338L18.041 18.6348C18.3129 18.3533 18.6775 17.9321 19.043 17.376C19.9424 16.0223 20.4467 14.4473 20.501 12.8271L20.5059 12.5029C20.5055 10.6452 19.9452 9.15626 19.3164 8.06836L19.0439 7.62695C18.6791 7.07024 18.3139 6.64746 18.042 6.36426L18.0391 6.36035L17.8574 6.17871C17.8023 6.12522 17.7525 6.07908 17.709 6.04102L17.707 6.04004L17.6289 5.97168H17.6279L17.6211 5.96484L17.6055 5.95117L17.5889 5.93848L17.5527 5.9043C17.542 5.89198 17.5326 5.87851 17.5244 5.86426C17.5079 5.83545 17.4972 5.80344 17.4932 5.77051C17.4891 5.73753 17.4919 5.70385 17.501 5.67188C17.51 5.63996 17.5252 5.60993 17.5459 5.58398C17.5666 5.55811 17.5921 5.53642 17.6211 5.52051C17.6502 5.50456 17.6828 5.49464 17.7158 5.49121ZM16.2256 8.5C16.2581 8.49633 16.2908 8.49981 16.3223 8.50879C16.3538 8.51786 16.3835 8.53324 16.4092 8.55371L16.417 8.55957L16.4297 8.57031L16.4883 8.62207H16.4893C16.5299 8.65905 16.5899 8.7182 16.6709 8.80371L16.793 8.94238C16.922 9.09516 17.0712 9.29129 17.2188 9.5332V9.53418C17.6145 10.1869 18.0058 11.168 18.0059 12.4971C18.0059 13.8247 17.6145 14.8072 17.2188 15.46V15.4609C17.0619 15.7208 16.8796 15.9645 16.6748 16.1885C16.6021 16.266 16.525 16.3397 16.4463 16.4111C16.4416 16.413 16.437 16.4159 16.4316 16.418C16.3866 16.4354 16.3282 16.4533 16.2686 16.4619C16.1777 16.475 16.1268 16.4642 16.0908 16.4375L16.0586 16.4062C16.0175 16.3549 15.998 16.289 16.0049 16.2236C16.0119 16.1581 16.0446 16.0973 16.0957 16.0557L16.1162 16.04L16.127 16.0273L16.1426 16.0146L16.1436 16.0137C16.188 15.974 16.2429 15.9193 16.3008 15.8584L16.3076 15.8506C16.4906 15.6497 16.6533 15.4303 16.793 15.1973L16.792 15.1963C17.1479 14.6104 17.5058 13.7181 17.5059 12.4961C17.5059 11.2714 17.1478 10.3795 16.791 9.79492H16.79C16.6143 9.50561 16.4043 9.23844 16.1631 9.00098L16.1533 8.99219L16.1445 8.98438L16.1172 8.95996L16.1074 8.95117L16.0977 8.94336L16.0625 8.90918C16.0311 8.87178 16.0114 8.82562 16.0059 8.77637C15.9985 8.71068 16.0175 8.64455 16.0586 8.59277L16.0576 8.5918C16.078 8.56639 16.1043 8.54606 16.1328 8.53027C16.1615 8.51441 16.193 8.5037 16.2256 8.5Z" fill="#222222" stroke="#222222"/>
</svg>
